<svg xmlns="http://www.w3.org/2000/svg" viewBox="0 0 124 124"><defs><linearGradient id="a" x1="118.74" y1="1.32" x2="3.41" y2="124.66" gradientUnits="userSpaceOnUse"><stop offset="0" stop-color="#ff6a00"/><stop offset="1" stop-color="#ee0979"/></linearGradient></defs><path d="M62 .52A61.48 61.48 0 1 0 123.48 62 61.49 61.49 0 0 0 62 .52zM64.07 32A4.44 4.44 0 0 1 67 35.3c.2 1.94-1.46 3-3.62 1.89-1.83-1-2.6-2.78-2-4.17A2.16 2.16 0 0 1 64.07 32zM52.56 15.37c2.39-.41 5.37 1.25 6.81 4.28 1.79 4 0 8-4.15 7.61-3.52-.34-6.08-3.82-6.23-7a4.5 4.5 0 0 1 3.57-4.89zm25.84 93a39.18 39.18 0 0 1-16.4.1A49.15 49.15 0 0 1 51.1 105C7.4 85.19 13 54.19 16.5 44.79a35.57 35.57 0 0 1 3.7-6.9c5.8-8.3 15.4-14.6 22.7-8.2 11.9 10.5 17.1 18.1 30 26.1a113.4 113.4 0 0 0 11.8 6.3c12.8 5.9 16.7 14.2 17.2 20.1v.7c.7 11.8-10 21.8-23.5 25.5zm29.29-51.32a3.42 3.42 0 0 1-2.29.22c-1.9-.5-8-5.3-14.9-11.8C82.83 38.22 74.37 29 70.09 21.59a31.32 31.32 0 0 1-2.21-4.32c-.76-2.06-1-5.09 5.12-3.68 9.7 1.7 23.8 9.1 31.6 23.8a49.57 49.57 0 0 1 4.53 12.82c.96 5.33-.58 6.44-1.44 6.86z" style="fill:url(#a)"/></svg>