<svg id="oxyblocks-logo" xmlns="http://www.w3.org/2000/svg" xmlns:xlink="http://www.w3.org/1999/xlink" viewBox="0 0 529.19 132.96"><defs><style>.cls-1{fill:#212833;}.cls-2{fill:url(#linear-gradient);}</style><linearGradient id="linear-gradient" x1="123.22" y1="5.8" x2="7.89" y2="129.14" gradientUnits="userSpaceOnUse"><stop offset="0" stop-color="#ff6a00"/><stop offset="1" stop-color="#ee0979"/></linearGradient></defs><path class="cls-1" d="M199.26,47.19a21.49,21.49,0,0,0-11-2.81,21.87,21.87,0,0,0-11.17,2.81A19.22,19.22,0,0,0,169.68,55a25,25,0,0,0-2.59,11.53,25.28,25.28,0,0,0,2.52,11.61,19,19,0,0,0,7.24,7.84,21.42,21.42,0,0,0,11,2.81,22.21,22.21,0,0,0,11.24-2.81,18.45,18.45,0,0,0,7.4-7.84,25,25,0,0,0,2.58-11.53A25.35,25.35,0,0,0,206.51,55,18.36,18.36,0,0,0,199.26,47.19Zm-2.14,30.18A11.21,11.21,0,0,1,188,81.58a11,11,0,0,1-9.1-4.21c-2.22-2.81-3.33-6.44-3.33-11A17.21,17.21,0,0,1,179,55.77a11.19,11.19,0,0,1,9.17-4.21,11,11,0,0,1,9.09,4.21c2.22,2.81,3.33,6.44,3.33,10.95A16.33,16.33,0,0,1,197.12,77.37Zm54.5-31.8-14.5,22,13.16,20.11h-9.17L231.5,72.56l-9.61,15.08h-9.32L226.69,66.2,214.12,47.05l7.47-3,10.8,17,10.13-15.53Zm32.39,0h8.57L274,95.33a16.52,16.52,0,0,1-5.55,7.33,22.47,22.47,0,0,1-9,4.21l-2.81-6.43A36.68,36.68,0,0,0,263,97.11,8.83,8.83,0,0,0,266.18,93l2.44-6.44L253.32,47l7.91-3,11.68,31.73Zm43.63,1.62a21.87,21.87,0,0,0-11.17-2.81,15.14,15.14,0,0,0-4.07.67A25.08,25.08,0,0,0,307.74,47V26.41l-8.35,1V87.64h4.66l1.62-2.51a20.33,20.33,0,0,0,5.47,2.74,17.73,17.73,0,0,0,5.11.88,21.56,21.56,0,0,0,11-2.73,19,19,0,0,0,7.39-7.69,24.74,24.74,0,0,0,2.59-11.47A25.92,25.92,0,0,0,334.73,55,17,17,0,0,0,327.64,47.19Zm-2,30.32a11.1,11.1,0,0,1-9.1,4.14,13.58,13.58,0,0,1-8.65-2.88V54.59a13,13,0,0,1,8.65-3,11,11,0,0,1,9.17,4.21c2.15,2.81,3.26,6.58,3.26,11.17C328.89,71.23,327.86,74.78,325.64,77.51Zm20.41-50.13,8.35-1V87.64h-8.35ZM395.3,47.19a21.49,21.49,0,0,0-11-2.81,21.87,21.87,0,0,0-11.17,2.81A19.16,19.16,0,0,0,365.72,55a25,25,0,0,0-2.59,11.53,25.28,25.28,0,0,0,2.51,11.61,19,19,0,0,0,7.25,7.84,21.42,21.42,0,0,0,11,2.81,22.21,22.21,0,0,0,11.24-2.81,18.51,18.51,0,0,0,7.4-7.84,25,25,0,0,0,2.58-11.53A25.35,25.35,0,0,0,402.55,55,19.4,19.4,0,0,0,395.3,47.19Zm-2.22,30.18a11.19,11.19,0,0,1-9.17,4.21,11,11,0,0,1-9.1-4.21c-2.21-2.81-3.32-6.44-3.32-11A17.14,17.14,0,0,1,375,55.77a11.2,11.2,0,0,1,9.17-4.21,11,11,0,0,1,9.1,4.21c2.22,2.81,3.33,6.44,3.33,10.95A16.33,16.33,0,0,1,393.08,77.37Zm29.14-21.6a17.15,17.15,0,0,0-3.48,10.65c0,4.51,1.11,8.14,3.33,11a11,11,0,0,0,9.09,4.21,24.41,24.41,0,0,0,6.14-.67,31.75,31.75,0,0,0,5.62-2.14l2.52,6a21.93,21.93,0,0,1-7,2.88,30.28,30.28,0,0,1-7.32,1.11,21.38,21.38,0,0,1-11-2.81,19.45,19.45,0,0,1-7.25-7.84,25.3,25.3,0,0,1-2.59-11.61A25,25,0,0,1,412.9,55a18.71,18.71,0,0,1,7.39-7.77,22.34,22.34,0,0,1,11.24-2.81,27.36,27.36,0,0,1,7.18,1.19,22,22,0,0,1,7,2.88l-2.44,5.92a59,59,0,0,0-6-2.15,22.29,22.29,0,0,0-5.77-.66A11.53,11.53,0,0,0,422.22,55.77ZM473.39,62l16.79,25.66h-9.77L467.69,67.31l-5.39,5.25V87.64H454V27.38l8.29-1V62.72l18.78-18.26L485.89,50Zm50.8,14.2a10.94,10.94,0,0,1-4.44,9.25q-4.43,3.31-12.64,3.32a33,33,0,0,1-7.25-1,20,20,0,0,1-6.65-2.81l2.59-5.84A25.61,25.61,0,0,0,507,82a13.05,13.05,0,0,0,6.65-1.48,4.49,4.49,0,0,0,2.44-3.92c0-2.88-3.18-5.25-9.39-7.25-9.17-3-13.75-7.24-13.75-12.64a10.57,10.57,0,0,1,4.28-8.95c2.89-2.14,6.81-3.25,11.69-3.25a26.79,26.79,0,0,1,6.95,1.11,21.39,21.39,0,0,1,6.51,2.88l-2.59,5.62a37.75,37.75,0,0,0-5.55-2.14,18.89,18.89,0,0,0-5.54-.74,8.92,8.92,0,0,0-5.4,1.55,4.61,4.61,0,0,0-2.15,3.77c.08,1.11.82,2.15,2.3,3.18a23.31,23.31,0,0,0,6.36,2.89C519.31,66,524,70.49,524.19,76.18Z"/><path class="cls-2" d="M66.48,5A61.48,61.48,0,1,0,128,66.48,61.49,61.49,0,0,0,66.48,5Zm2.07,31.5a4.44,4.44,0,0,1,2.9,3.28c.2,1.94-1.46,3-3.62,1.89-1.83-1-2.6-2.78-2-4.17A2.16,2.16,0,0,1,68.55,36.5ZM57,19.85c2.39-.42,5.37,1.25,6.81,4.28,1.79,4,0,8-4.15,7.61-3.52-.34-6.08-3.82-6.23-7A4.5,4.5,0,0,1,57,19.85Zm25.84,93a39.18,39.18,0,0,1-16.4.1,49.15,49.15,0,0,1-10.9-3.5c-43.7-19.8-38.1-50.8-34.6-60.2a35.57,35.57,0,0,1,3.7-6.9c5.8-8.3,15.4-14.6,22.7-8.2,11.9,10.5,17.1,18.1,30,26.1a113.4,113.4,0,0,0,11.8,6.3c12.8,5.9,16.7,14.2,17.2,20.1v.7C107.08,99.17,96.38,109.17,82.88,112.87Zm29.29-51.32a3.42,3.42,0,0,1-2.29.22c-1.9-.5-8-5.3-14.9-11.8-7.67-7.27-16.13-16.5-20.41-23.9a31.92,31.92,0,0,1-2.21-4.32c-.76-2.06-1-5.09,5.12-3.68,9.7,1.7,23.8,9.1,31.6,23.8a49.57,49.57,0,0,1,4.53,12.82C114.57,60,113,61.13,112.17,61.55Z"/></svg>